<svg width="96" height="99" viewBox="0 0 96 99" fill="none" xmlns="http://www.w3.org/2000/svg">
<path d="M90.1394 90.688C90.1487 90.9913 90.2202 91.2643 90.3541 91.507C90.4881 91.7496 90.6844 91.941 90.943 92.081C91.2063 92.2163 91.5273 92.284 91.906 92.284C92.234 92.284 92.5156 92.2396 92.7512 92.151C92.9914 92.0576 93.19 91.948 93.347 91.822C93.504 91.6913 93.6195 91.57 93.6934 91.458L94.3515 92.361C94.2084 92.557 94.0283 92.732 93.8111 92.886C93.5941 93.04 93.3239 93.159 93.0006 93.243C92.6819 93.3316 92.287 93.376 91.8159 93.376C91.1971 93.376 90.659 93.2476 90.2017 92.991C89.7445 92.7343 89.3889 92.3726 89.1348 91.906C88.8854 91.4393 88.7607 90.8933 88.7607 90.268C88.7607 89.708 88.8762 89.204 89.1071 88.756C89.3381 88.3033 89.6729 87.9463 90.1117 87.685C90.555 87.4236 91.0862 87.293 91.7051 87.293C92.2825 87.293 92.7835 87.4096 93.2084 87.643C93.6334 87.8763 93.9613 88.2123 94.1922 88.651C94.4277 89.085 94.5455 89.61 94.5455 90.226C94.5455 90.2633 94.5432 90.3403 94.5386 90.457C94.5386 90.5736 94.534 90.6506 94.5247 90.688H90.1394ZM93.1599 89.596C93.1554 89.4466 93.1045 89.2763 93.0075 89.085C92.9152 88.8936 92.765 88.728 92.5572 88.588C92.3494 88.4433 92.0722 88.371 91.7259 88.371C91.3703 88.371 91.0816 88.441 90.8599 88.581C90.6382 88.7163 90.4743 88.8796 90.368 89.071C90.2618 89.2576 90.1995 89.4326 90.1809 89.596H93.1599Z" fill="#132323"/>
<path d="M84.0197 87.293C84.3384 87.293 84.634 87.3233 84.9065 87.384C85.1789 87.4446 85.4122 87.517 85.6062 87.601C85.8002 87.685 85.9341 87.755 86.008 87.811L85.4676 88.735C85.3753 88.6556 85.209 88.5646 84.9688 88.462C84.7333 88.3593 84.4678 88.308 84.1721 88.308C83.8765 88.308 83.6271 88.3616 83.4239 88.469C83.2208 88.5763 83.1191 88.7373 83.1191 88.952C83.1191 89.162 83.2253 89.33 83.4378 89.456C83.6548 89.582 83.9482 89.687 84.3176 89.771C84.6224 89.841 84.9134 89.939 85.1905 90.065C85.4676 90.1863 85.694 90.3613 85.8695 90.59C86.0496 90.814 86.1396 91.115 86.1396 91.493C86.1396 91.8523 86.0634 92.1533 85.911 92.396C85.7633 92.634 85.5646 92.8253 85.3152 92.97C85.0658 93.1146 84.7887 93.2173 84.4839 93.278C84.1837 93.3433 83.8812 93.376 83.5763 93.376C83.2022 93.376 82.8674 93.3386 82.5718 93.264C82.2808 93.1893 82.0384 93.103 81.8444 93.005C81.6504 92.9023 81.5118 92.816 81.4287 92.746L81.9691 91.71C82.0891 91.8266 82.2855 91.9503 82.558 92.081C82.8304 92.207 83.1352 92.27 83.4724 92.27C83.8327 92.27 84.1214 92.2 84.3384 92.06C84.5554 91.92 84.664 91.7333 84.664 91.5C84.664 91.3273 84.6109 91.1873 84.5047 91.08C84.403 90.9726 84.2622 90.8863 84.0821 90.821C83.9019 90.7556 83.701 90.6973 83.4794 90.646C83.2715 90.5946 83.0614 90.5293 82.8489 90.45C82.6411 90.366 82.4494 90.2586 82.2739 90.128C82.0984 89.9926 81.9575 89.8246 81.8513 89.624C81.7451 89.4233 81.692 89.1876 81.692 88.917C81.692 88.5716 81.8005 88.2776 82.0176 88.035C82.2346 87.7923 82.521 87.608 82.8766 87.482C83.2322 87.356 83.6133 87.293 84.0197 87.293Z" fill="#132323"/>
<path d="M74.2792 90.282C74.2792 90.842 74.3923 91.2877 74.6186 91.619C74.8495 91.9503 75.2121 92.116 75.7063 92.116C76.2051 92.116 76.5676 91.9503 76.794 91.619C77.0203 91.2877 77.1334 90.842 77.1334 90.282V87.461H78.6021V90.471C78.6021 91.0497 78.489 91.5583 78.2627 91.997C78.0363 92.431 77.7084 92.7693 77.2789 93.012C76.8494 93.2547 76.3251 93.376 75.7063 93.376C75.092 93.376 74.5701 93.2547 74.1406 93.012C73.7111 92.7693 73.3832 92.431 73.1568 91.997C72.9305 91.5583 72.8174 91.0497 72.8174 90.471V87.461H74.2792V90.282Z" fill="#132323"/>
<path d="M66.9236 93.376C66.3278 93.376 65.7968 93.2453 65.3302 92.984C64.8684 92.718 64.5058 92.3586 64.2425 91.906C63.9793 91.4486 63.8477 90.9306 63.8477 90.352C63.8477 89.7733 63.9793 89.253 64.2425 88.791C64.5058 88.329 64.8684 87.965 65.3302 87.699C65.7968 87.4283 66.3278 87.293 66.9236 87.293C67.5194 87.293 68.0459 87.4283 68.5032 87.699C68.9604 87.965 69.3184 88.329 69.577 88.791C69.8402 89.253 69.9719 89.7733 69.9719 90.352C69.9719 90.9306 69.8402 91.4486 69.577 91.906C69.3184 92.3586 68.9604 92.718 68.5032 92.984C68.0459 93.2453 67.5194 93.376 66.9236 93.376ZM66.9236 92.116C67.2562 92.116 67.5448 92.039 67.7896 91.885C68.0344 91.731 68.2238 91.521 68.3577 91.255C68.4917 90.989 68.5586 90.6856 68.5586 90.345C68.5586 90.0043 68.4917 89.701 68.3577 89.435C68.2238 89.1643 68.0344 88.9496 67.7896 88.791C67.5448 88.6323 67.2562 88.553 66.9236 88.553C66.5911 88.553 66.3001 88.6323 66.0507 88.791C65.806 88.9496 65.6143 89.1643 65.4757 89.435C65.3418 89.701 65.2748 90.0043 65.2748 90.345C65.2748 90.6856 65.3418 90.989 65.4757 91.255C65.6143 91.521 65.806 91.731 66.0507 91.885C66.3001 92.039 66.5911 92.116 66.9236 92.116Z" fill="#132323"/>
<path d="M58.6824 87.293C59.061 87.293 59.4306 87.3723 59.7908 87.531C60.1511 87.6897 60.4466 87.944 60.6776 88.294C60.9132 88.6393 61.0309 89.0897 61.0309 89.645V93.208H59.5414V89.918C59.5414 89.4 59.4237 89.0197 59.1881 88.777C58.9571 88.5297 58.65 88.406 58.2667 88.406C58.0127 88.406 57.7679 88.4783 57.5324 88.623C57.2968 88.7677 57.1028 88.9637 56.9504 89.211C56.8026 89.4583 56.7287 89.743 56.7287 90.065V93.208H55.2393V83.576H56.7287V88.427C56.7703 88.2683 56.8812 88.1027 57.0613 87.93C57.246 87.7527 57.4792 87.6033 57.761 87.482C58.0427 87.356 58.3499 87.293 58.6824 87.293Z" fill="#132323"/>
<path d="M44.5513 87.293C44.9347 87.293 45.3065 87.3723 45.6667 87.531C46.027 87.6896 46.3226 87.944 46.5535 88.294C46.789 88.6393 46.9068 89.0896 46.9068 89.645V93.208H45.4173V89.918C45.4173 89.4 45.2949 89.0196 45.0502 88.777C44.81 88.5296 44.4982 88.406 44.1149 88.406C43.8608 88.406 43.6184 88.4783 43.3875 88.623C43.1566 88.7676 42.9672 88.9636 42.8194 89.211C42.6762 89.4583 42.6046 89.743 42.6046 90.065V93.208H41.1221V87.461H42.6046V88.427C42.6462 88.2683 42.757 88.1026 42.9372 87.93C43.1219 87.7526 43.3551 87.6033 43.6369 87.482C43.9186 87.356 44.2235 87.293 44.5513 87.293Z" fill="#132323"/>
<path d="M34.7363 96.281C34.3022 96.281 33.8981 96.2366 33.524 96.148C33.1544 96.064 32.8243 95.9356 32.5333 95.763C32.2423 95.595 32.0068 95.3873 31.8266 95.14L32.748 94.216C32.845 94.3373 32.9697 94.4633 33.1221 94.594C33.2746 94.7293 33.4755 94.8413 33.7249 94.93C33.9743 95.0233 34.2906 95.07 34.674 95.07C35.0481 95.07 35.3668 94.993 35.63 94.839C35.8978 94.685 36.1011 94.4726 36.2397 94.202C36.3828 93.936 36.4544 93.628 36.4544 93.278V93.103H37.9093V93.369C37.9093 94.0036 37.7684 94.5356 37.4867 94.965C37.2049 95.399 36.8239 95.7256 36.3436 95.945C35.8632 96.169 35.3275 96.281 34.7363 96.281ZM36.4544 93.208V92.144C36.4174 92.256 36.3112 92.41 36.1358 92.606C35.9648 92.802 35.7293 92.9793 35.4291 93.138C35.1335 93.2966 34.7825 93.376 34.3761 93.376C33.8449 93.376 33.3669 93.2476 32.942 92.991C32.517 92.7343 32.1822 92.3773 31.9375 91.92C31.6926 91.4626 31.5703 90.9353 31.5703 90.338C31.5703 89.7406 31.6926 89.2133 31.9375 88.756C32.1822 88.2986 32.517 87.9416 32.942 87.685C33.3669 87.4236 33.8449 87.293 34.3761 87.293C34.7732 87.293 35.1174 87.363 35.4083 87.503C35.6993 87.643 35.9325 87.804 36.108 87.986C36.2882 88.168 36.399 88.3266 36.4406 88.462V87.461H37.9093V93.208H36.4544ZM33.0321 90.338C33.0321 90.7066 33.1128 91.0286 33.2746 91.304C33.4362 91.5793 33.6463 91.7916 33.905 91.941C34.1683 92.0903 34.4499 92.165 34.7502 92.165C35.0734 92.165 35.3598 92.088 35.6092 91.934C35.8632 91.78 36.0618 91.5676 36.205 91.297C36.3528 91.0216 36.4267 90.702 36.4267 90.338C36.4267 89.974 36.3528 89.6566 36.205 89.386C36.0618 89.1106 35.8632 88.896 35.6092 88.742C35.3598 88.5833 35.0734 88.504 34.7502 88.504C34.4499 88.504 34.1683 88.581 33.905 88.735C33.6463 88.8843 33.4362 89.0966 33.2746 89.372C33.1128 89.6473 33.0321 89.9693 33.0321 90.338Z" fill="#132323"/>
<path d="M27.0704 93.208V87.461H28.546V93.208H27.0704ZM27.8255 85.739C27.5761 85.739 27.3614 85.648 27.1812 85.466C27.0058 85.284 26.918 85.067 26.918 84.815C26.918 84.563 27.0058 84.346 27.1812 84.164C27.3614 83.9773 27.5761 83.884 27.8255 83.884C27.9918 83.884 28.1442 83.9283 28.2828 84.017C28.426 84.101 28.5391 84.213 28.6222 84.353C28.71 84.4883 28.7538 84.6423 28.7538 84.815C28.7538 85.067 28.6638 85.284 28.4837 85.466C28.3035 85.648 28.0842 85.739 27.8255 85.739Z" fill="#132323"/>
<path d="M21.8586 87.293C22.1773 87.293 22.4728 87.3233 22.7454 87.384C23.0178 87.4446 23.2511 87.517 23.4451 87.601C23.639 87.685 23.7729 87.755 23.8469 87.811L23.3065 88.735C23.2141 88.6556 23.0478 88.5646 22.8077 88.462C22.5722 88.3593 22.3065 88.308 22.011 88.308C21.7154 88.308 21.466 88.3616 21.2628 88.469C21.0595 88.5763 20.958 88.7373 20.958 88.952C20.958 89.162 21.0642 89.33 21.2767 89.456C21.4937 89.582 21.7869 89.687 22.1565 89.771C22.4613 89.841 22.7523 89.939 23.0294 90.065C23.3065 90.1863 23.5327 90.3613 23.7083 90.59C23.8884 90.814 23.9785 91.115 23.9785 91.493C23.9785 91.8523 23.9023 92.1533 23.7499 92.396C23.602 92.634 23.4035 92.8253 23.1541 92.97C22.9047 93.1146 22.6276 93.2173 22.3228 93.278C22.0225 93.3433 21.72 93.376 21.4152 93.376C21.0411 93.376 20.7062 93.3386 20.4107 93.264C20.1197 93.1893 19.8772 93.103 19.6832 93.005C19.4893 92.9023 19.3507 92.816 19.2676 92.746L19.8079 91.71C19.928 91.8266 20.1243 91.9503 20.3968 92.081C20.6693 92.207 20.9741 92.27 21.3113 92.27C21.6715 92.27 21.9601 92.2 22.1773 92.06C22.3943 91.92 22.5029 91.7333 22.5029 91.5C22.5029 91.3273 22.4497 91.1873 22.3435 91.08C22.2419 90.9726 22.1011 90.8863 21.9209 90.821C21.7408 90.7556 21.5399 90.6973 21.3182 90.646C21.1104 90.5946 20.9002 90.5293 20.6878 90.45C20.4799 90.366 20.2882 90.2586 20.1128 90.128C19.9372 89.9926 19.7964 89.8246 19.6902 89.624C19.5839 89.4233 19.5308 89.1876 19.5308 88.917C19.5308 88.5716 19.6393 88.2776 19.8564 88.035C20.0735 87.7923 20.3598 87.608 20.7155 87.482C21.0711 87.356 21.4521 87.293 21.8586 87.293Z" fill="#132323"/>
<path d="M12.2712 90.688C12.2805 90.9913 12.3521 91.2643 12.486 91.507C12.62 91.7496 12.8162 91.941 13.0748 92.081C13.3381 92.2163 13.6592 92.284 14.0378 92.284C14.3658 92.284 14.6475 92.2396 14.883 92.151C15.1232 92.0576 15.3218 91.948 15.4788 91.822C15.6359 91.6913 15.7514 91.57 15.8252 91.458L16.4833 92.361C16.3402 92.557 16.1601 92.732 15.943 92.886C15.7259 93.04 15.4557 93.159 15.1324 93.243C14.8137 93.3316 14.4188 93.376 13.9478 93.376C13.3289 93.376 12.7908 93.2476 12.3336 92.991C11.8763 92.7343 11.5207 92.3726 11.2667 91.906C11.0173 91.4393 10.8926 90.8933 10.8926 90.268C10.8926 89.708 11.0081 89.204 11.239 88.756C11.47 88.3033 11.8048 87.9463 12.2435 87.685C12.6869 87.4236 13.2181 87.293 13.8369 87.293C14.4143 87.293 14.9154 87.4096 15.3402 87.643C15.7652 87.8763 16.0931 88.2123 16.324 88.651C16.5595 89.085 16.6773 89.61 16.6773 90.226C16.6773 90.2633 16.675 90.3403 16.6704 90.457C16.6704 90.5736 16.6658 90.6506 16.6565 90.688H12.2712ZM15.2918 89.596C15.2872 89.4466 15.2363 89.2763 15.1393 89.085C15.047 88.8936 14.8969 88.728 14.689 88.588C14.4812 88.4433 14.2041 88.371 13.8577 88.371C13.5021 88.371 13.2134 88.441 12.9917 88.581C12.77 88.7163 12.6061 88.8796 12.4998 89.071C12.3936 89.2576 12.3313 89.4326 12.3128 89.596H15.2918Z" fill="#132323"/>
<path d="M1.57324 83.968H3.90792C4.88244 83.968 5.68607 84.1664 6.31881 84.563C6.95156 84.955 7.42265 85.4987 7.7321 86.194C8.04153 86.8894 8.19626 87.685 8.19626 88.581C8.19626 89.4817 8.04153 90.2797 7.7321 90.975C7.42727 91.6704 6.95849 92.2164 6.32574 92.613C5.693 93.0097 4.88706 93.208 3.90792 93.208H1.57324V83.968ZM3.02116 85.298V91.878H3.78322C4.44368 91.878 4.98405 91.738 5.40434 91.458C5.82925 91.1734 6.14331 90.7837 6.34652 90.289C6.54974 89.7944 6.65366 89.2297 6.65828 88.595C6.6629 87.9604 6.5636 87.3957 6.36038 86.901C6.15716 86.4017 5.84079 86.0097 5.41126 85.725C4.98636 85.4404 4.44368 85.298 3.78322 85.298H3.02116Z" fill="#132323"/>
<path d="M21.7734 75C43.8039 75 56.1554 75 78.1858 75" stroke="#677171" stroke-width="0.5" stroke-linecap="round"/>
<path d="M64.8699 55.5093C64.73 55.6526 64.6592 55.83 64.6592 56.0326V72.3823C64.6592 72.5848 64.73 72.7622 64.8699 72.9055L64.8771 72.9124C65.0301 73.0497 65.2086 73.1223 65.4075 73.1223C65.6186 73.1223 65.8022 73.052 65.945 72.9055C66.0849 72.7622 66.1557 72.5848 66.1557 72.3823V56.7972H71.3095C71.9548 56.7972 72.535 56.9621 73.054 57.2906L73.0584 57.2933C73.5962 57.6082 74.0173 58.0321 74.324 58.5664L74.3256 58.5692C74.6465 59.1016 74.8078 59.6972 74.8078 60.3597C74.8078 61.0222 74.6466 61.6267 74.3246 62.1764L74.324 62.1776C74.017 62.7124 73.5952 63.145 73.0563 63.4765C72.537 63.7894 71.956 63.9468 71.3095 63.9468H67.6387C67.4398 63.9468 67.2614 64.0194 67.1083 64.1567L67.1011 64.1636C66.9584 64.3098 66.8904 64.4968 66.8904 64.7114C66.8904 64.9135 66.9607 65.0953 67.0944 65.252L67.1009 65.2595L67.1083 65.2662C67.2614 65.4034 67.4398 65.4761 67.6387 65.4761H71.0533L74.9698 72.749C75.0658 72.926 75.2058 73.052 75.3885 73.1144L75.3929 73.1158C75.5923 73.1771 75.7917 73.155 75.983 73.0569L75.9894 73.0537L75.9954 73.0498C76.1529 72.949 76.2623 72.8058 76.3209 72.6258L76.3222 72.6215C76.3816 72.4188 76.3602 72.2161 76.265 72.0209L76.2623 72.0156L72.6356 65.2779C73.3005 65.0995 73.8977 64.7938 74.4259 64.3608L74.4279 64.3591C75.0036 63.8703 75.4563 63.28 75.7852 62.5896C76.1314 61.8965 76.3043 61.1525 76.3043 60.3597C76.3043 59.4324 76.0738 58.5861 75.6116 57.8243C75.1676 57.0497 74.5666 56.4337 73.8103 55.9784C73.0659 55.5042 72.231 55.2679 71.3095 55.2679H65.4075C65.2021 55.2679 65.0215 55.3539 64.8699 55.5093Z" fill="#4A6565"/>
<path d="M64.8699 55.5093C64.73 55.6526 64.6592 55.83 64.6592 56.0326V72.3823C64.6592 72.5848 64.73 72.7622 64.8699 72.9055L64.8771 72.9124C65.0301 73.0497 65.2086 73.1223 65.4075 73.1223C65.6186 73.1223 65.8022 73.052 65.945 72.9055C66.0849 72.7622 66.1557 72.5848 66.1557 72.3823V56.7972H71.3095C71.9548 56.7972 72.535 56.9621 73.054 57.2906L73.0584 57.2933C73.5962 57.6082 74.0173 58.0321 74.324 58.5664L74.3256 58.5692C74.6465 59.1016 74.8078 59.6972 74.8078 60.3597C74.8078 61.0222 74.6466 61.6267 74.3246 62.1764L74.324 62.1776C74.017 62.7124 73.5952 63.145 73.0563 63.4765C72.537 63.7894 71.956 63.9468 71.3095 63.9468H67.6387C67.4398 63.9468 67.2614 64.0194 67.1083 64.1567L67.1011 64.1636C66.9584 64.3098 66.8904 64.4968 66.8904 64.7114C66.8904 64.9135 66.9607 65.0953 67.0944 65.252L67.1009 65.2595L67.1083 65.2662C67.2614 65.4034 67.4398 65.4761 67.6387 65.4761H71.0533L74.9698 72.749C75.0658 72.926 75.2058 73.052 75.3885 73.1144L75.3929 73.1158C75.5923 73.1771 75.7917 73.155 75.983 73.0569L75.9894 73.0537L75.9954 73.0498C76.1529 72.949 76.2623 72.8058 76.3209 72.6258L76.3222 72.6215C76.3816 72.4188 76.3602 72.2161 76.265 72.0209L76.2623 72.0156L72.6356 65.2779C73.3005 65.0995 73.8977 64.7938 74.4259 64.3608L74.4279 64.3591C75.0036 63.8703 75.4563 63.28 75.7852 62.5896C76.1314 61.8965 76.3043 61.1525 76.3043 60.3597C76.3043 59.4324 76.0738 58.5861 75.6116 57.8243C75.1676 57.0497 74.5666 56.4337 73.8103 55.9784C73.0659 55.5042 72.231 55.2679 71.3095 55.2679H65.4075C65.2021 55.2679 65.0215 55.3539 64.8699 55.5093ZM64.8699 55.5093L64.9744 55.6134" stroke="#4A6565" stroke-width="0.3"/>
<path d="M53.4118 72.6049L53.4123 72.6064C53.4683 72.7594 53.5543 72.8853 53.6759 72.972C53.7978 73.0589 53.9433 73.0978 54.1034 73.0978C54.2698 73.0978 54.4205 73.0597 54.5464 72.9737C54.6728 72.8874 54.7618 72.7611 54.8184 72.6064L54.8189 72.605L60.7442 55.9132C60.8217 55.713 60.8135 55.5134 60.7145 55.3271C60.6332 55.1438 60.4916 55.0128 60.3011 54.9347C60.1035 54.8537 59.9061 54.8619 59.7225 54.9644C59.5426 55.0482 59.4152 55.1936 59.3394 55.3875L59.3379 55.3918L54.1037 70.0943L48.893 55.392L48.8913 55.3875C48.8156 55.1936 48.6882 55.0482 48.5084 54.9644C48.3247 54.8619 48.1272 54.8537 47.9296 54.9347C47.7371 55.0137 47.5945 55.1467 47.5136 55.3332C47.4325 55.5201 47.4345 55.7167 47.5106 55.9132L53.4118 72.6049Z" fill="#4A6565" stroke="#4A6565" stroke-width="0.3"/>
<path d="M33.3503 72.5849L33.3525 72.59C33.4339 72.7778 33.5788 72.9044 33.7747 72.9664C33.9703 73.0447 34.1654 73.0356 34.3472 72.9342C34.5271 72.8504 34.6544 72.705 34.7301 72.5111L34.7315 72.5075L36.3993 67.8856H41.2858C41.4854 67.8856 41.6595 67.8122 41.7994 67.6688C41.9392 67.5254 42.0101 67.3481 42.0101 67.1455C42.0101 66.9327 41.9432 66.747 41.803 66.6013C41.6655 66.4422 41.4907 66.3563 41.2858 66.3563H36.9645L40.086 57.8183L45.4411 72.5079L45.4423 72.5111C45.5184 72.7061 45.6467 72.852 45.8281 72.9356C46.0181 73.032 46.2131 73.0476 46.4003 72.9655C46.5938 72.9036 46.7373 72.7784 46.8186 72.5931C46.9147 72.3944 46.9256 72.1882 46.8468 71.9849L40.8014 55.3417L40.7983 55.334C40.7336 55.1824 40.6414 55.0589 40.5173 54.9741C40.3927 54.889 40.2466 54.85 40.0862 54.85C39.9259 54.85 39.7797 54.889 39.6551 54.9741C39.531 55.0589 39.4388 55.1824 39.3741 55.334L39.371 55.3419L33.3496 71.9849C33.2725 72.1836 33.2728 72.3862 33.3503 72.5849Z" fill="#4A6565" stroke="#4A6565" stroke-width="0.3"/>
<path d="M25.6383 72.9055L25.6454 72.9124C25.8014 73.0523 25.9887 73.1223 26.1998 73.1223C26.3994 73.1223 26.5734 73.049 26.7134 72.9055C26.8532 72.7622 26.9241 72.5848 26.9241 72.3823V56.7972H31.9819C32.1814 56.7972 32.3555 56.7238 32.4955 56.5804C32.6471 56.425 32.7301 56.2409 32.7301 56.0326C32.7301 55.8265 32.6487 55.6495 32.4957 55.5091C32.3588 55.3524 32.1852 55.2679 31.9819 55.2679H20.3698C20.1649 55.2679 19.9901 55.3538 19.8527 55.5129C19.7152 55.6556 19.6455 55.8317 19.6455 56.0326C19.6455 56.2346 19.7157 56.4164 19.8495 56.5731L19.8562 56.5804C19.9962 56.7238 20.1702 56.7972 20.3698 56.7972H25.4276V72.3823C25.4276 72.5848 25.4983 72.7622 25.6383 72.9055Z" fill="#4A6565" stroke="#4A6565" stroke-width="0.3"/>
<path d="M42.5566 1.99976V46.9998" stroke="#03363D" stroke-width="2" stroke-linecap="round"/>
<path d="M54.4326 1.99976V46.9998" stroke="#03363D" stroke-width="2" stroke-linecap="round"/>
<path d="M28.7012 1H68.2888" stroke="#03363D" stroke-width="2" stroke-linecap="round"/>
<path d="M46.5146 47H54.4322" stroke="#03363D" stroke-width="2" stroke-linecap="round"/>
</svg>
