<svg width="98" height="99" viewBox="0 0 98 99" fill="none" xmlns="http://www.w3.org/2000/svg">
<path d="M89.1394 90.688C89.1487 90.9913 89.2202 91.2643 89.3541 91.507C89.4881 91.7496 89.6844 91.941 89.943 92.081C90.2063 92.2163 90.5273 92.284 90.906 92.284C91.234 92.284 91.5156 92.2396 91.7512 92.151C91.9914 92.0576 92.19 91.948 92.347 91.822C92.504 91.6913 92.6195 91.57 92.6934 91.458L93.3515 92.361C93.2084 92.557 93.0283 92.732 92.8111 92.886C92.5941 93.04 92.3239 93.159 92.0006 93.243C91.6819 93.3316 91.287 93.376 90.8159 93.376C90.1971 93.376 89.659 93.2476 89.2017 92.991C88.7445 92.7343 88.3889 92.3726 88.1348 91.906C87.8854 91.4393 87.7607 90.8933 87.7607 90.268C87.7607 89.708 87.8762 89.204 88.1071 88.756C88.3381 88.3033 88.6729 87.9463 89.1117 87.685C89.555 87.4236 90.0862 87.293 90.7051 87.293C91.2825 87.293 91.7835 87.4096 92.2084 87.643C92.6334 87.8763 92.9613 88.2123 93.1922 88.651C93.4277 89.085 93.5455 89.61 93.5455 90.226C93.5455 90.2633 93.5432 90.3403 93.5386 90.457C93.5386 90.5736 93.534 90.6506 93.5247 90.688H89.1394ZM92.1599 89.596C92.1554 89.4466 92.1045 89.2763 92.0075 89.085C91.9152 88.8936 91.765 88.728 91.5572 88.588C91.3494 88.4433 91.0722 88.371 90.7259 88.371C90.3703 88.371 90.0816 88.441 89.8599 88.581C89.6382 88.7163 89.4743 88.8796 89.368 89.071C89.2618 89.2576 89.1995 89.4326 89.1809 89.596H92.1599Z" fill="#E5E6E6"/>
<path d="M83.0197 87.293C83.3384 87.293 83.634 87.3233 83.9065 87.384C84.1789 87.4446 84.4122 87.517 84.6062 87.601C84.8002 87.685 84.9341 87.755 85.008 87.811L84.4676 88.735C84.3753 88.6556 84.209 88.5646 83.9688 88.462C83.7333 88.3593 83.4678 88.308 83.1721 88.308C82.8765 88.308 82.6271 88.3616 82.4239 88.469C82.2208 88.5763 82.1191 88.7373 82.1191 88.952C82.1191 89.162 82.2253 89.33 82.4378 89.456C82.6548 89.582 82.9482 89.687 83.3176 89.771C83.6224 89.841 83.9134 89.939 84.1905 90.065C84.4676 90.1863 84.694 90.3613 84.8695 90.59C85.0496 90.814 85.1396 91.115 85.1396 91.493C85.1396 91.8523 85.0634 92.1533 84.911 92.396C84.7633 92.634 84.5646 92.8253 84.3152 92.97C84.0658 93.1146 83.7887 93.2173 83.4839 93.278C83.1837 93.3433 82.8812 93.376 82.5763 93.376C82.2022 93.376 81.8674 93.3386 81.5718 93.264C81.2808 93.1893 81.0384 93.103 80.8444 93.005C80.6504 92.9023 80.5118 92.816 80.4287 92.746L80.9691 91.71C81.0891 91.8266 81.2855 91.9503 81.558 92.081C81.8304 92.207 82.1352 92.27 82.4724 92.27C82.8327 92.27 83.1214 92.2 83.3384 92.06C83.5554 91.92 83.664 91.7333 83.664 91.5C83.664 91.3273 83.6109 91.1873 83.5047 91.08C83.403 90.9726 83.2622 90.8863 83.0821 90.821C82.9019 90.7556 82.701 90.6973 82.4794 90.646C82.2715 90.5946 82.0614 90.5293 81.8489 90.45C81.6411 90.366 81.4494 90.2586 81.2739 90.128C81.0984 89.9926 80.9575 89.8246 80.8513 89.624C80.7451 89.4233 80.692 89.1876 80.692 88.917C80.692 88.5716 80.8005 88.2776 81.0176 88.035C81.2346 87.7923 81.521 87.608 81.8766 87.482C82.2322 87.356 82.6133 87.293 83.0197 87.293Z" fill="#E5E6E6"/>
<path d="M73.2792 90.2819C73.2792 90.8419 73.3923 91.2876 73.6186 91.6189C73.8495 91.9502 74.2121 92.1159 74.7063 92.1159C75.2051 92.1159 75.5676 91.9502 75.794 91.6189C76.0203 91.2876 76.1334 90.8419 76.1334 90.2819V87.4609H77.6021V90.4709C77.6021 91.0496 77.489 91.5582 77.2627 91.9969C77.0363 92.4309 76.7084 92.7692 76.2789 93.0119C75.8494 93.2546 75.3251 93.3759 74.7063 93.3759C74.092 93.3759 73.5701 93.2546 73.1406 93.0119C72.7111 92.7692 72.3832 92.4309 72.1568 91.9969C71.9305 91.5582 71.8174 91.0496 71.8174 90.4709V87.4609H73.2792V90.2819Z" fill="#E5E6E6"/>
<path d="M65.9236 93.376C65.3278 93.376 64.7968 93.2453 64.3302 92.984C63.8684 92.718 63.5058 92.3586 63.2425 91.906C62.9793 91.4486 62.8477 90.9306 62.8477 90.352C62.8477 89.7733 62.9793 89.253 63.2425 88.791C63.5058 88.329 63.8684 87.965 64.3302 87.699C64.7968 87.4283 65.3278 87.293 65.9236 87.293C66.5194 87.293 67.0459 87.4283 67.5032 87.699C67.9604 87.965 68.3184 88.329 68.577 88.791C68.8402 89.253 68.9719 89.7733 68.9719 90.352C68.9719 90.9306 68.8402 91.4486 68.577 91.906C68.3184 92.3586 67.9604 92.718 67.5032 92.984C67.0459 93.2453 66.5194 93.376 65.9236 93.376ZM65.9236 92.116C66.2562 92.116 66.5448 92.039 66.7896 91.885C67.0344 91.731 67.2238 91.521 67.3577 91.255C67.4917 90.989 67.5586 90.6856 67.5586 90.345C67.5586 90.0043 67.4917 89.701 67.3577 89.435C67.2238 89.1643 67.0344 88.9496 66.7896 88.791C66.5448 88.6323 66.2562 88.553 65.9236 88.553C65.5911 88.553 65.3001 88.6323 65.0507 88.791C64.806 88.9496 64.6143 89.1643 64.4757 89.435C64.3418 89.701 64.2748 90.0043 64.2748 90.345C64.2748 90.6856 64.3418 90.989 64.4757 91.255C64.6143 91.521 64.806 91.731 65.0507 91.885C65.3001 92.039 65.5911 92.116 65.9236 92.116Z" fill="#E5E6E6"/>
<path d="M57.6824 87.2929C58.061 87.2929 58.4306 87.3722 58.7908 87.5309C59.1511 87.6896 59.4466 87.9439 59.6776 88.2939C59.9132 88.6392 60.0309 89.0896 60.0309 89.6449V93.2079H58.5414V89.9179C58.5414 89.3999 58.4237 89.0196 58.1881 88.7769C57.9571 88.5296 57.65 88.4059 57.2667 88.4059C57.0127 88.4059 56.7679 88.4782 56.5324 88.6229C56.2968 88.7676 56.1028 88.9636 55.9504 89.2109C55.8026 89.4582 55.7287 89.7429 55.7287 90.0649V93.2079H54.2393V83.5759H55.7287V88.4269C55.7703 88.2682 55.8812 88.1026 56.0613 87.9299C56.246 87.7526 56.4792 87.6032 56.761 87.4819C57.0427 87.3559 57.3499 87.2929 57.6824 87.2929Z" fill="#E5E6E6"/>
<path d="M43.5513 87.293C43.9347 87.293 44.3065 87.3723 44.6667 87.531C45.027 87.6896 45.3226 87.944 45.5535 88.294C45.789 88.6393 45.9068 89.0896 45.9068 89.645V93.208H44.4173V89.918C44.4173 89.4 44.2949 89.0196 44.0502 88.777C43.81 88.5296 43.4982 88.406 43.1149 88.406C42.8608 88.406 42.6184 88.4783 42.3875 88.623C42.1566 88.7676 41.9672 88.9636 41.8194 89.211C41.6762 89.4583 41.6046 89.743 41.6046 90.065V93.208H40.1221V87.461H41.6046V88.427C41.6462 88.2683 41.757 88.1026 41.9372 87.93C42.1219 87.7526 42.3551 87.6033 42.6369 87.482C42.9186 87.356 43.2235 87.293 43.5513 87.293Z" fill="#E5E6E6"/>
<path d="M33.7363 96.281C33.3022 96.281 32.8981 96.2366 32.524 96.148C32.1544 96.064 31.8243 95.9356 31.5333 95.763C31.2423 95.595 31.0068 95.3873 30.8266 95.14L31.748 94.216C31.845 94.3373 31.9697 94.4633 32.1221 94.594C32.2746 94.7293 32.4755 94.8413 32.7249 94.93C32.9743 95.0233 33.2906 95.07 33.674 95.07C34.0481 95.07 34.3668 94.993 34.63 94.839C34.8978 94.685 35.1011 94.4726 35.2397 94.202C35.3828 93.936 35.4544 93.628 35.4544 93.278V93.103H36.9093V93.369C36.9093 94.0036 36.7684 94.5356 36.4867 94.965C36.2049 95.399 35.8239 95.7256 35.3436 95.945C34.8632 96.169 34.3275 96.281 33.7363 96.281ZM35.4544 93.208V92.144C35.4174 92.256 35.3112 92.41 35.1358 92.606C34.9648 92.802 34.7293 92.9793 34.4291 93.138C34.1335 93.2966 33.7825 93.376 33.3761 93.376C32.8449 93.376 32.3669 93.2476 31.942 92.991C31.517 92.7343 31.1822 92.3773 30.9375 91.92C30.6926 91.4626 30.5703 90.9353 30.5703 90.338C30.5703 89.7406 30.6926 89.2133 30.9375 88.756C31.1822 88.2986 31.517 87.9416 31.942 87.685C32.3669 87.4236 32.8449 87.293 33.3761 87.293C33.7732 87.293 34.1174 87.363 34.4083 87.503C34.6993 87.643 34.9325 87.804 35.108 87.986C35.2882 88.168 35.399 88.3266 35.4406 88.462V87.461H36.9093V93.208H35.4544ZM32.0321 90.338C32.0321 90.7066 32.1128 91.0286 32.2746 91.304C32.4362 91.5793 32.6463 91.7916 32.905 91.941C33.1683 92.0903 33.4499 92.165 33.7502 92.165C34.0734 92.165 34.3598 92.088 34.6092 91.934C34.8632 91.78 35.0618 91.5676 35.205 91.297C35.3528 91.0216 35.4267 90.702 35.4267 90.338C35.4267 89.974 35.3528 89.6566 35.205 89.386C35.0618 89.1106 34.8632 88.896 34.6092 88.742C34.3598 88.5833 34.0734 88.504 33.7502 88.504C33.4499 88.504 33.1683 88.581 32.905 88.735C32.6463 88.8843 32.4362 89.0966 32.2746 89.372C32.1128 89.6473 32.0321 89.9693 32.0321 90.338Z" fill="#E5E6E6"/>
<path d="M26.0704 93.208V87.461H27.546V93.208H26.0704ZM26.8255 85.739C26.5761 85.739 26.3614 85.648 26.1812 85.466C26.0058 85.284 25.918 85.067 25.918 84.815C25.918 84.563 26.0058 84.346 26.1812 84.164C26.3614 83.9773 26.5761 83.884 26.8255 83.884C26.9918 83.884 27.1442 83.9283 27.2828 84.017C27.426 84.101 27.5391 84.213 27.6222 84.353C27.71 84.4883 27.7538 84.6423 27.7538 84.815C27.7538 85.067 27.6638 85.284 27.4837 85.466C27.3035 85.648 27.0842 85.739 26.8255 85.739Z" fill="#E5E6E6"/>
<path d="M20.8586 87.293C21.1773 87.293 21.4728 87.3233 21.7454 87.384C22.0178 87.4446 22.2511 87.517 22.4451 87.601C22.639 87.685 22.7729 87.755 22.8469 87.811L22.3065 88.735C22.2141 88.6556 22.0478 88.5646 21.8077 88.462C21.5722 88.3593 21.3065 88.308 21.011 88.308C20.7154 88.308 20.466 88.3616 20.2628 88.469C20.0595 88.5763 19.958 88.7373 19.958 88.952C19.958 89.162 20.0642 89.33 20.2767 89.456C20.4937 89.582 20.7869 89.687 21.1565 89.771C21.4613 89.841 21.7523 89.939 22.0294 90.065C22.3065 90.1863 22.5327 90.3613 22.7083 90.59C22.8884 90.814 22.9785 91.115 22.9785 91.493C22.9785 91.8523 22.9023 92.1533 22.7499 92.396C22.602 92.634 22.4035 92.8253 22.1541 92.97C21.9047 93.1146 21.6276 93.2173 21.3228 93.278C21.0225 93.3433 20.72 93.376 20.4152 93.376C20.0411 93.376 19.7062 93.3386 19.4107 93.264C19.1197 93.1893 18.8772 93.103 18.6832 93.005C18.4893 92.9023 18.3507 92.816 18.2676 92.746L18.8079 91.71C18.928 91.8266 19.1243 91.9503 19.3968 92.081C19.6693 92.207 19.9741 92.27 20.3113 92.27C20.6715 92.27 20.9601 92.2 21.1773 92.06C21.3943 91.92 21.5029 91.7333 21.5029 91.5C21.5029 91.3273 21.4497 91.1873 21.3435 91.08C21.2419 90.9726 21.1011 90.8863 20.9209 90.821C20.7408 90.7556 20.5399 90.6973 20.3182 90.646C20.1104 90.5946 19.9002 90.5293 19.6878 90.45C19.4799 90.366 19.2882 90.2586 19.1128 90.128C18.9372 89.9926 18.7964 89.8246 18.6902 89.624C18.5839 89.4233 18.5308 89.1876 18.5308 88.917C18.5308 88.5716 18.6393 88.2776 18.8564 88.035C19.0735 87.7923 19.3598 87.608 19.7155 87.482C20.0711 87.356 20.4521 87.293 20.8586 87.293Z" fill="#E5E6E6"/>
<path d="M11.2712 90.688C11.2805 90.9913 11.3521 91.2643 11.486 91.507C11.62 91.7496 11.8162 91.941 12.0748 92.081C12.3381 92.2163 12.6592 92.284 13.0378 92.284C13.3658 92.284 13.6475 92.2396 13.883 92.151C14.1232 92.0576 14.3218 91.948 14.4788 91.822C14.6359 91.6913 14.7514 91.57 14.8252 91.458L15.4833 92.361C15.3402 92.557 15.1601 92.732 14.943 92.886C14.7259 93.04 14.4557 93.159 14.1324 93.243C13.8137 93.3316 13.4188 93.376 12.9478 93.376C12.3289 93.376 11.7908 93.2476 11.3336 92.991C10.8763 92.7343 10.5207 92.3726 10.2667 91.906C10.0173 91.4393 9.89258 90.8933 9.89258 90.268C9.89258 89.708 10.0081 89.204 10.239 88.756C10.47 88.3033 10.8048 87.9463 11.2435 87.685C11.6869 87.4236 12.2181 87.293 12.8369 87.293C13.4143 87.293 13.9154 87.4096 14.3402 87.643C14.7652 87.8763 15.0931 88.2123 15.324 88.651C15.5595 89.085 15.6773 89.61 15.6773 90.226C15.6773 90.2633 15.675 90.3403 15.6704 90.457C15.6704 90.5736 15.6658 90.6506 15.6565 90.688H11.2712ZM14.2918 89.596C14.2872 89.4466 14.2363 89.2763 14.1393 89.085C14.047 88.8936 13.8969 88.728 13.689 88.588C13.4812 88.4433 13.2041 88.371 12.8577 88.371C12.5021 88.371 12.2134 88.441 11.9917 88.581C11.77 88.7163 11.6061 88.8796 11.4998 89.071C11.3936 89.2576 11.3313 89.4326 11.3128 89.596H14.2918Z" fill="#E5E6E6"/>
<path d="M0.573242 83.968H2.90792C3.88244 83.968 4.68607 84.1664 5.31881 84.563C5.95156 84.955 6.42265 85.4987 6.7321 86.194C7.04153 86.8894 7.19626 87.685 7.19626 88.581C7.19626 89.4817 7.04153 90.2797 6.7321 90.975C6.42727 91.6704 5.95849 92.2164 5.32574 92.613C4.693 93.0097 3.88706 93.208 2.90792 93.208H0.573242V83.968ZM2.02116 85.298V91.878H2.78322C3.44368 91.878 3.98405 91.738 4.40434 91.458C4.82925 91.1734 5.14331 90.7837 5.34652 90.289C5.54974 89.7944 5.65366 89.2297 5.65828 88.595C5.6629 87.9604 5.5636 87.3957 5.36038 86.901C5.15716 86.4017 4.84079 86.0097 4.41126 85.725C3.98636 85.4404 3.44368 85.298 2.78322 85.298H2.02116Z" fill="#E5E6E6"/>
<path d="M23 75C45.2599 75 57.7401 75 80 75" stroke="#D9D9D9" stroke-width="0.5" stroke-linecap="round"/>
<path d="M73.0518 55.2675C73.9822 55.2675 74.8255 55.504 75.5771 55.9775L75.8564 56.1562C76.4907 56.5894 77.0048 57.1449 77.3975 57.8222L77.5625 58.1122C77.9204 58.7976 78.0986 59.5475 78.0986 60.3593C78.0986 61.1513 77.9233 61.8943 77.5742 62.5869L77.5752 62.5878C77.2428 63.2788 76.7852 63.8702 76.2031 64.3593L76.2012 64.3613L76.2002 64.3603C75.6663 64.7934 75.0627 65.098 74.3906 65.2763L78.0566 72.0156L78.0596 72.0204L78.1172 72.1689C78.1609 72.3175 78.162 72.4693 78.1172 72.621L78.1152 72.6259C78.0561 72.8057 77.946 72.9489 77.7871 73.0497L77.7803 73.0536L77.7744 73.0566C77.581 73.1546 77.3792 73.1775 77.1777 73.1161L77.1738 73.1142C76.9892 73.0518 76.848 72.926 76.751 72.749H76.75L72.7939 65.4765H69.3428C69.1419 65.4765 68.9613 65.4037 68.8066 65.2665L68.7998 65.2597L68.793 65.2519C68.6579 65.0953 68.587 64.9137 68.5869 64.7119C68.5869 64.4974 68.6558 64.3102 68.7998 64.164L68.8066 64.1562C68.9612 64.019 69.1419 63.9473 69.3428 63.9472H73.0518C73.7048 63.9472 74.2918 63.7892 74.8164 63.4765L75.0156 63.3476C75.4662 63.0354 75.8262 62.6456 76.0977 62.1777L76.0986 62.1767L76.2129 61.9677C76.462 61.4746 76.5869 60.939 76.5869 60.3593C76.5869 59.697 76.4238 59.1016 76.0996 58.5693L76.0977 58.5663C75.7878 58.0321 75.3627 57.6078 74.8193 57.2929L74.8145 57.291C74.29 56.9624 73.7037 56.7968 73.0518 56.7968H67.8447V72.3828C67.8446 72.5345 67.8043 72.6722 67.7246 72.7919L67.6318 72.9052C67.4876 73.0515 67.3021 73.1219 67.0889 73.122C66.8879 73.122 66.7074 73.0493 66.5527 72.912L66.5449 72.9062L66.6523 72.7997L66.5449 72.9052C66.4039 72.7621 66.3321 72.5849 66.332 72.3828V56.0322C66.3321 55.83 66.4039 55.6529 66.5449 55.5097L66.666 55.4062C66.7917 55.3165 66.9333 55.2675 67.0889 55.2675H73.0518Z" fill="#FAFAFA" stroke="#FAFAFA" stroke-width="0.3"/>
<path d="M61.3506 54.9617C61.5346 54.8622 61.732 54.8541 61.9297 54.9343L62.0654 55.0037C62.1882 55.0807 62.2812 55.1871 62.3428 55.321H62.3438C62.4462 55.5081 62.4549 55.7085 62.377 55.9099L62.3779 55.9109L56.3906 72.6052L56.3896 72.6062C56.3325 72.7607 56.2427 72.8871 56.1152 72.9734C55.988 73.0594 55.8351 73.0974 55.667 73.0974C55.5054 73.0974 55.3584 73.0591 55.2354 72.9724C55.1125 72.8857 55.0253 72.7592 54.9688 72.6062V72.6052L49.0049 55.9109L49.0059 55.9099C48.93 55.7144 48.9272 55.5189 49.0088 55.3328L49.082 55.2029C49.1661 55.0834 49.2831 54.9934 49.4287 54.9343L49.5049 54.908C49.6769 54.8576 49.8474 54.875 50.0078 54.9617L50.0742 54.9958C50.1814 55.0577 50.2679 55.1432 50.333 55.2498L50.4004 55.3875L50.4023 55.3923L55.667 70.0945L60.9561 55.3914L60.958 55.3875L61.0254 55.2498C61.1034 55.122 61.212 55.0242 61.3506 54.9617Z" fill="#FAFAFA" stroke="#FAFAFA" stroke-width="0.3"/>
<path d="M41.5039 54.8496C41.6658 54.8496 41.8137 54.8887 41.9395 54.9736C42.0335 55.0372 42.1093 55.123 42.1689 55.2256L42.2236 55.334L42.2266 55.3418L48.3359 71.9863H48.335C48.4136 72.188 48.4019 72.3916 48.3066 72.5889L48.3076 72.5898C48.2244 72.7797 48.0762 72.9075 47.875 72.9688C47.6894 73.0462 47.4967 73.0303 47.3086 72.9365V72.9375C47.1237 72.8541 46.9933 72.7068 46.916 72.5107L46.915 72.5078L41.5029 57.8174L38.3496 66.3564H42.7158C42.9244 66.3564 43.1029 66.4431 43.2422 66.6045H43.2412C43.381 66.7497 43.4482 66.9341 43.4482 67.1455C43.4482 67.348 43.3766 67.5256 43.2354 67.6689C43.0939 67.8124 42.9174 67.8857 42.7158 67.8857H37.7783L36.0938 72.5078L36.0918 72.5107C36.0145 72.7068 35.8842 72.8541 35.6992 72.9375L35.6982 72.9365C35.5182 73.0336 35.3262 73.0428 35.1328 72.9678V72.9688C34.9318 72.9075 34.7833 72.7796 34.7002 72.5898L34.6982 72.585C34.6201 72.3867 34.6199 72.1846 34.6973 71.9863H34.6963L40.7812 55.3418L40.7842 55.334L40.8389 55.2256C40.8985 55.123 40.9743 55.0372 41.0684 54.9736C41.1941 54.8886 41.342 54.8496 41.5039 54.8496Z" fill="#FAFAFA" stroke="#FAFAFA" stroke-width="0.3"/>
<path d="M33.3145 55.2675C33.5231 55.2675 33.7015 55.3551 33.8408 55.5165H33.8398C33.9899 55.6558 34.0712 55.8293 34.0713 56.0322C34.0713 56.1885 34.0239 56.3318 33.9355 56.4589L33.834 56.58C33.6926 56.7234 33.5161 56.7968 33.3145 56.7968H28.2041V72.3828C28.204 72.5851 28.1324 72.762 27.9912 72.9052C27.8498 73.0486 27.6742 73.122 27.4727 73.122C27.2593 73.122 27.0697 73.0519 26.9121 72.912L26.9053 72.9062L27.0117 72.7997L26.9053 72.9052C26.7641 72.762 26.6925 72.5851 26.6924 72.3828V56.7968H21.582C21.3804 56.7968 21.2039 56.7234 21.0625 56.58L21.0557 56.5732C20.9206 56.4165 20.8496 56.2341 20.8496 56.0322C20.8497 55.8332 20.9192 55.6585 21.0557 55.5165L21.1104 55.4599C21.2406 55.335 21.3994 55.2675 21.582 55.2675H33.3145Z" fill="#FAFAFA" stroke="#FAFAFA" stroke-width="0.3"/>
<path d="M44 1.99976L44 46.9998" stroke="#77B7B7" stroke-width="2" stroke-linecap="round"/>
<path d="M55.999 1.99976L55.999 46.9998" stroke="#77B7B7" stroke-width="2" stroke-linecap="round"/>
<path d="M30 1L70 1" stroke="#77B7B7" stroke-width="2" stroke-linecap="round"/>
<path d="M48 47L56 47" stroke="#77B7B7" stroke-width="2" stroke-linecap="round"/>
</svg>
